<svg xmlns="http://www.w3.org/2000/svg" xmlns:xlink="http://www.w3.org/1999/xlink" width="400" height="400" viewBox="0 0 400 400">
<rect data-name="background" width="100%" height="100%" fill="none"/><g data-name="icon" fill="#000000" data="id:3462112" transform="translate(11.343333387098163,151.4449029839024) scale(0.6838746058605294)">
  <g><path d="M106.683,57c-0.702-1.492-1.756-3.869-3.034-6.756c-1.893-4.272-4.247-9.589-6.538-14.455   c-1.713-3.637-5.276-6.028-9.3-6.24C80.912,29.185,72.901,29,64,29c-2.633,0-5.177,0.018-7.648,0.05   c-0.124,1.668-0.24,3.338-0.348,5.01C58.562,34.021,61.227,34,64,34c4.576,0,8.861,0.055,12.836,0.162c0.002,0,0.004,0,0.006,0   c2.815,0.075,5.48,0.176,7.961,0.304c3.626,0.187,6.897,2.308,8.539,5.534c1.982,3.9,4.025,8.186,5.666,11.629   c1.113,2.335,2.024,4.246,2.599,5.372H106.683z"/><path d="M53.774,91.488c-0.238-3.949-0.427-7.931-0.552-11.865c-3.214-3.173-6.005-8.532-7.174-17.461   c-0.196-1.499,0.23-2.999,1.161-4.161h-5.134c-0.172,10.448,0.045,21.081,0.649,31.641C46.112,90.449,49.788,91.083,53.774,91.488z   "/><path d="M57.414,56h3.172l19.729-19.729c-1.001-0.037-2.026-0.07-3.073-0.099L57.414,56z"/><path d="M54.345,29.078c-3.928,0.066-7.625,0.175-11.082,0.325c-0.126,1.691-0.241,3.391-0.349,5.096   c0.095-0.008,0.187-0.029,0.283-0.034c3.299-0.17,6.917-0.292,10.799-0.369C54.104,32.421,54.222,30.749,54.345,29.078z"/><path d="M119,68.679v-4.082c0-3.086-2.511-5.597-5.597-5.597H92.832c1.07,6.383,2.661,20.258-1.704,28.999   C107.137,82.749,115.469,73.626,119,68.679z"/><path d="M64,92c9.5,0,17.539-1.228,24.323-3.151c5.667-8.309,3.313-25.061,2.451-30.021C90.691,58.349,90.276,58,89.789,58h-8.998   c0.931,1.163,1.357,2.662,1.161,4.161C79.463,81.163,69.636,84,64,84c-2.431,0-5.642-0.532-8.708-2.658   c0.124,3.436,0.286,6.892,0.495,10.327C58.4,91.878,61.127,92,64,92z"/><path d="M64,82c11.604,0,14.986-12.592,15.97-20.099c0.132-1.009-0.171-2.02-0.832-2.772C78.499,58.401,77.62,58,76.663,58H51.337   c-0.957,0-1.836,0.401-2.475,1.129c-0.661,0.752-0.964,1.763-0.832,2.772C49.014,69.408,52.396,82,64,82z"/><path d="M107,38c0.552,0,1-0.449,1-1V25c0-0.551-0.448-1-1-1s-1,0.449-1,1v12C106,37.551,106.448,38,107,38z"/><path d="M74.48,36.105C71.182,36.036,67.687,36,64,36c-7.784,0-14.749,0.156-20.699,0.462c-2.914,0.15-5.542,1.853-6.859,4.443   c-1.972,3.877-4.008,8.15-5.644,11.583c-0.862,1.808-1.602,3.36-2.168,4.511h7.352c0.553-0.616,1.349-1,2.229-1h16.375   L74.48,36.105z"/><path d="M121,44.101V43h-5.02c-2.746,0-4.98,2.234-4.98,4.98V49h5.101C118.802,49,121,46.802,121,44.101z"/><path d="M123.104,95.706c0.044-0.018,0.09-0.015,0.135-0.026c0.411-0.681,1.762-3.167,1.762-6.422c0-1.85-0.428-2.971-0.835-3.62   c-2.868,5.22-5.238,8.771-8.37,12.94C118.016,97.75,120.462,96.791,123.104,95.706z"/><path d="M88.936,100.062c-1.157,0.338-5.007,1.42-9.936,2.357v5.872c5.447-1.063,9.578-2.241,9.621-2.253   c0.239-0.069,0.5-0.045,0.724,0.068c0.078,0.039,7.829,3.894,13.493,3.894c5.056,0,17.196-5.402,19.935-6.65   c0.031-0.946,0.091-2.919,0.142-5.407C116.945,100.371,107.447,104,104,104C98.457,104,90.675,100.807,88.936,100.062z"/><path d="M40.698,89.131C40.118,78.738,39.908,68.28,40.075,58h-1.864c-0.487,0-0.902,0.349-0.985,0.829   c-0.86,4.954-3.215,21.713,2.448,30.02C40.012,88.944,40.353,89.038,40.698,89.131z"/><path d="M9,64.597v4.082C12.531,73.626,20.863,82.749,36.872,88c-4.365-8.741-2.772-22.623-1.704-29H14.597   C11.511,59,9,61.511,9,64.597z"/><path d="M34.658,40c1.282-2.52,3.563-4.35,6.226-5.126c0.112-1.801,0.237-3.591,0.369-5.377c-0.353,0.017-0.716,0.033-1.063,0.052   c-4.023,0.212-7.587,2.603-9.3,6.24c-2.291,4.866-4.646,10.183-6.538,14.456c-1.278,2.888-2.332,5.264-3.034,6.756h5.076   c0.574-1.126,1.485-3.036,2.599-5.372C30.633,48.185,32.676,43.899,34.658,40z"/><path d="M92.019,57h7.352c-0.567-1.151-1.307-2.704-2.168-4.511c-1.636-3.433-3.672-7.706-5.644-11.583   c-1.317-2.59-3.945-4.293-6.859-4.443c-0.545-0.028-1.107-0.054-1.669-0.079L63.414,56h26.375C90.669,56,91.466,56.384,92.019,57z"/><path d="M24,102c5.722,0,14.506-3.875,14.594-3.914c0.221-0.099,0.47-0.113,0.7-0.042c0.043,0.013,4.116,1.256,9.706,2.338V99   c0-0.552,0.447-1,1-1h28c0.553,0,1,0.448,1,1v1.383c5.591-1.083,9.663-2.326,9.706-2.34c0.23-0.071,0.479-0.056,0.7,0.042   C89.494,98.125,98.284,102,104,102c1.355,0,4.278-0.773,8.324-2.171c4.275-5.531,7.002-9.436,10.607-16.11   c-0.001-0.011-0.007-0.021-0.007-0.032c-0.201-7.457-0.753-9.617-1.063-10.241c-0.399-0.803-1.101-1.799-1.838-2.776   C114.137,78.484,98.141,94,64,94S13.863,78.484,7.978,70.67c-0.737,0.978-1.438,1.973-1.837,2.775   c-0.313,0.628-0.865,2.804-1.065,10.287c3.599,6.661,6.324,10.565,10.592,16.087C19.393,101.107,22.533,102,24,102z M94.06,92.66   C94.203,92.264,94.579,92,95,92c9.477,0,24.146-14.56,24.293-14.707c0.342-0.341,0.876-0.39,1.275-0.116   c0.397,0.274,0.542,0.793,0.344,1.233C119.364,81.849,111.374,99,106,99c-5.301,0-11.384-5.018-11.641-5.232   C94.036,93.499,93.916,93.056,94.06,92.66z M7.432,77.177c0.398-0.274,0.934-0.225,1.275,0.116C8.854,77.44,23.53,92,33,92   c0.421,0,0.797,0.264,0.94,0.66s0.023,0.839-0.3,1.108C33.384,93.982,27.301,99,22,99C16.626,99,8.636,81.849,7.088,78.41   C6.89,77.97,7.035,77.451,7.432,77.177z"/><path d="M11.157,82.27c1.475,2.906,3.134,5.87,4.749,8.377c0.485-1.123,1.155-2.157,1.992-3.068   C15.32,85.763,12.979,83.853,11.157,82.27z"/><path d="M22,97c2.9,0,6.254-1.889,8.342-3.29c-3.488-0.718-7.274-2.692-10.753-4.98c-1.098,1.12-1.884,2.479-2.279,3.988   C19.149,95.281,20.836,97,22,97z"/><rect x="51" y="100" width="26" height="12"/><path d="M109,49.764v-1.671c-1.374,0.24-2.392,1.005-3.091,2.318c0.473,1.068,0.909,2.05,1.303,2.929L109,49.764z"/><path d="M24,104c-3.531,0-13.63-3.909-18.915-6.058c0.05,2.488,0.111,4.461,0.142,5.407C7.966,104.598,20.108,110,25.162,110   c5.664,0,13.415-3.855,13.493-3.894c0.224-0.114,0.483-0.137,0.724-0.068c0.044,0.013,4.179,1.191,9.621,2.252v-5.872   c-4.928-0.936-8.779-2.018-9.936-2.357C37.324,100.808,29.543,104,24,104z"/><path d="M12.2,98.572c-3.13-4.167-5.499-7.717-8.366-12.935C3.43,86.282,3,87.404,3,89.258c0,3.217,1.299,5.651,1.737,6.382   C7.157,96.636,9.729,97.651,12.2,98.572z"/><path d="M124.176,104.905c-0.618,0.29-15.21,7.095-21.338,7.095c-5.489,0-12.396-3.147-14.039-3.935   c-1.179,0.324-5.033,1.348-9.799,2.263V113c0,0.552-0.447,1-1,1H50c-0.553,0-1-0.448-1-1v-2.672   c-4.765-0.914-8.619-1.939-9.799-2.263c-1.644,0.788-8.55,3.935-14.039,3.935c-6.128,0-20.72-6.805-21.338-7.095   c-0.072-0.034-0.135-0.079-0.195-0.127c-0.476,0.626-0.617,1.503-0.629,2.239c-0.014,0.765,0.33,1.493,1.05,2.224   C9.28,114.562,32.812,118,64,118s54.72-3.438,59.95-8.759c0.72-0.731,1.063-1.459,1.05-2.224c-0.012-0.734-0.153-1.612-0.628-2.239   C124.311,104.826,124.248,104.872,124.176,104.905z"/><path d="M22.091,50.411c-0.698-1.313-1.717-2.077-3.091-2.318v1.671l1.788,3.576C21.181,52.46,21.617,51.478,22.091,50.411z"/><path d="M40.084,27.551c4.552-0.24,9.594-0.401,15.043-0.484c0.116-0.035,0.239-0.054,0.37-0.044   c0.047,0.004,0.085,0.027,0.13,0.037C58.324,27.021,61.11,27,64,27c8.937,0,16.983,0.186,23.916,0.551   c3.602,0.19,6.89,1.858,9.156,4.522c3.492,0.289,5.707,0.57,6.928,0.75v-5.917C99.99,26.519,83.026,25,64,25   c-19.03,0-35.991,1.519-40,1.906v5.917c1.221-0.18,3.436-0.461,6.928-0.75C33.194,29.409,36.482,27.741,40.084,27.551z"/><path d="M11.899,49H17v-2c0-2.949-2.573-4-4.98-4H7v1.101C7,46.802,9.198,49,11.899,49z"/><path d="M21,38c0.552,0,1-0.449,1-1V25c0-0.551-0.448-1-1-1s-1,0.449-1,1v12C20,37.551,20.448,38,21,38z"/><path d="M110.688,92.721c-0.396-1.511-1.179-2.87-2.278-3.99c-3.478,2.287-7.262,4.261-10.75,4.979c2.09,1.4,5.446,3.29,8.34,3.29   C107.164,97,108.851,95.282,110.688,92.721z"/><path d="M116.844,82.269c-1.822,1.584-4.163,3.494-6.742,5.31c0.837,0.91,1.508,1.944,1.993,3.068   C113.709,88.141,115.368,85.176,116.844,82.269z"/></g>
  </g><g data-name="business_name" fill="#000000" data="id:243" transform="translate(123.05916131022465,158.9729498246378) scale(1.2820952797706515)"><path d="M-0.96,48l5.64-32l3.6,0l1.8,19.6l0-0.4l3.4-19.2l4,0l-5.64,32l-3.6,0l-2.12-17.6l-0.04,0.4l-3.04,17.2l-4,0z M18.4,31.16c1.96-11.16,3-15.56,9-15.56s5.44,4.4,3.48,15.56c-2.24,12.8-3.28,17.24-9.28,17.24s-5.44-4.44-3.2-17.24z M22.32,44.4c2.24,0,2.52-1.68,4.56-13.24c1.84-10.4,2.2-12.36-0.04-12.36s-2.6,1.96-4.44,12.36c-2.04,11.56-2.32,13.24-0.08,13.24z  M40.32,48l5.64-32l3.6,0l1.8,19.6l0-0.4l3.4-19.2l4,0l-5.64,32l-3.6,0l-2.12-17.6l-0.04,0.4l-3.04,17.2l-4,0z M57.12,48l2.96-16.8c1.96-11.16,2.76-15.56,8.76-15.56s5.2,4.4,3.24,15.56l-2.96,16.8l-4,0l1.64-9.2l-4,0l-1.64,9.2l-4,0z M63.32,35.6l4,0l0.76-4.4c1.84-10.4,2.16-12.36,0.16-12.36s-2.32,1.96-4.16,12.36z M73.12,48l5.64-32l3.6,0l0.68,20l0.4,0l7.72-20l3.6,0l-5.64,32l-4,0l2.8-16l-5.64,16l-2.4,0l0.04-16l-2.8,16l-4,0z M93.12,48l5.64-32l9.2,0l-0.56,3.2l-5.2,0l-1.84,10.4l4.4,0l-0.56,3.2l-4.4,0l-1.96,11.2l5.2,0l-0.72,4l-9.2,0z  M113.92,48l5.64-32l9.2,0l-0.56,3.2l-5.2,0l-1.84,10.4l4.4,0l-0.56,3.2l-4.4,0l-1.96,11.2l5.2,0l-0.72,4l-9.2,0z M124.72,48l6.84-16.12l-0.8-15.88l4,0l-0.36,11.2l0.4,0l3.56-11.2l4,0l-6.2,14.8l0.96,17.2l-4,0l0-11.32l-0.4,0l-4,11.32l-4,0z M142.48,31.16c1.96-11.16,3-15.56,9-15.56s5.44,4.4,3.48,15.56c-2.24,12.8-3.28,17.24-9.28,17.24s-5.44-4.44-3.2-17.24z M146.4,44.4c2.24,0,2.52-1.68,4.56-13.24c1.84-10.4,2.2-12.36-0.04-12.36s-2.6,1.96-4.44,12.36c-2.04,11.56-2.32,13.24-0.08,13.24z M158,48l5-28.4l-4,0l0.64-3.6l12,0l-0.64,3.6l-4,0l-5,28.4l-4,0z M168.4,48l5.64-32l4,0l-5.64,32l-4,0z M178.96,31.16c1.96-11.16,2.76-15.56,8.36-15.56c4.12,0,4.8,2.52,4,8.56l-3.72,0c0.6-4.36,0.36-5.36-0.84-5.36c-1.84,0-2.2,1.96-4.04,12.36c-2.04,11.56-2.32,13.24-0.48,13.24c1.32,0,1.88-1,2.88-6.16l3.76,0c-1.56,7.4-3.04,10.16-7.36,10.16c-5.6,0-4.8-4.44-2.56-17.24z M190.88,38.24l4.04,0c-0.84,5.16-0.6,6.16,0.84,6.16c1.96,0,2.24-1.64,3-6c1.12-6.4-7.08-4.68-5.6-13.2c0.88-5,1.72-9.6,7.72-9.6c4.44,0,5.2,2.52,4.4,8.56l-4,0c0.6-4.36,0.32-5.36-0.96-5.36c-1.96,0-2.36,2.16-3.12,6.4c-1.08,6.2,7.28,4,5.64,13.2c-0.96,5.6-1.76,10-7.8,10c-4.64,0-5.24-2.76-4.16-10.16z"/></g></svg>